<?xml version="1.0" standalone="no"?>
<!DOCTYPE svg PUBLIC "-//W3C//DTD SVG 20010904//EN"
 "http://www.w3.org/TR/2001/REC-SVG-20010904/DTD/svg10.dtd">
<svg version="1.0" xmlns="http://www.w3.org/2000/svg"
 width="600.000000pt" height="307.000000pt" viewBox="0 0 600.000000 307.000000"
 preserveAspectRatio="xMidYMid meet">
<g transform="translate(0.000000,307.000000) scale(0.100000,-0.100000)"
fill="#000000" stroke="none">
<path d="M3283 2788 c-20 -7 -33 -18 -35 -31 -2 -14 -13 -24 -33 -29 -31 -8
-525 -142 -845 -230 -102 -28 -232 -63 -290 -78 -58 -15 -177 -48 -265 -73
-362 -102 -547 -149 -557 -139 -6 6 -26 5 -56 -2 l-47 -12 5 -410 c3 -225 4
-498 4 -607 l-2 -197 42 0 c54 0 710 37 886 50 373 28 1275 122 1287 134 3 2
5 334 6 738 l2 733 80 -1 c44 -1 217 -20 385 -43 168 -23 377 -51 465 -62 88
-12 167 -24 175 -27 19 -7 30 -4 -195 -50 -165 -35 -180 -40 -183 -60 -2 -12
-2 -22 1 -22 2 0 60 11 128 25 317 64 382 76 390 68 4 -4 9 -212 11 -461 l3
-452 33 2 32 2 0 448 c0 392 2 448 15 448 12 0 15 14 15 69 0 45 -4 73 -12 78
-7 4 -56 7 -108 6 -61 -1 -166 9 -295 28 -110 16 -245 36 -300 44 -128 17
-501 74 -537 81 -16 3 -28 11 -28 19 0 24 -114 33 -177 13z m137 -54 c16 -41
12 -54 -15 -54 -22 0 -25 4 -25 40 0 47 24 56 40 14z m-92 -22 c3 -27 0 -32
-17 -32 -17 0 -21 6 -21 36 0 28 3 35 18 32 11 -2 18 -14 20 -36z m-78 -156
c0 -65 -2 -74 -20 -79 -19 -5 -20 0 -20 74 0 72 2 79 20 79 18 0 20 -7 20 -74z
m-128 -38 l3 -83 61 3 c80 4 96 -10 92 -82 -2 -32 -7 -50 -15 -49 -6 2 -29 5
-50 9 l-38 6 -2 -96 -2 -96 49 0 c51 0 77 -17 41 -27 -20 -5 -21 -11 -21 -169
0 -139 2 -164 15 -164 8 0 15 -9 15 -19 0 -17 -4 -19 -32 -10 -69 19 -68 20
-68 -97 l0 -106 47 3 c39 3 48 0 51 -14 2 -12 -3 -17 -17 -17 -20 0 -21 -5
-21 -151 0 -116 -3 -150 -12 -146 -10 3 -12 40 -9 150 l3 147 -25 0 c-13 0
-39 -3 -56 -6 -31 -6 -32 -9 -29 -48 3 -40 2 -41 -30 -44 -32 -3 -32 -3 -32
43 0 39 -3 46 -16 41 -9 -3 -29 -6 -45 -6 l-28 0 -3 -147 c-2 -106 -6 -147
-15 -151 -10 -3 -13 27 -13 126 0 151 9 139 -115 144 l-80 3 1 -142 c0 -113
-2 -143 -13 -143 -10 0 -13 30 -13 140 l0 140 -37 0 c-52 0 -64 -10 -61 -51 3
-32 1 -34 -29 -37 -32 -3 -33 -2 -33 36 0 43 3 41 -62 27 l-28 -5 0 -137 c0
-75 -2 -134 -4 -132 -7 7 -10 289 -3 295 3 3 24 8 46 11 l41 6 0 111 c0 72 -4
106 -10 96 -7 -12 -12 -11 -30 5 -18 17 -20 26 -15 70 10 68 21 88 30 52 4
-15 11 -27 16 -27 5 0 9 2 9 4 0 2 3 12 7 22 4 11 3 15 -5 10 -29 -18 -20 24
25 124 19 41 20 54 12 150 -5 58 -7 164 -3 235 6 121 14 152 36 139 11 -7 10
-389 -1 -435 -13 -57 -3 -63 61 -39 31 11 75 34 98 51 33 24 39 33 30 44 -9
11 -9 18 3 29 8 8 17 12 21 9 3 -4 6 5 6 18 0 14 5 30 12 37 7 7 9 12 5 12 -4
0 -2 6 5 14 9 9 18 11 30 5 22 -12 33 7 47 84 6 31 15 66 21 76 5 11 10 58 10
105 0 85 0 86 25 86 25 0 25 -1 25 -85 0 -69 3 -85 15 -85 8 0 15 5 15 11 0 5
4 8 9 4 5 -3 17 2 25 11 12 11 16 36 16 94 0 74 4 86 32 89 4 1 8 -36 10 -81z
m1578 6 c0 -28 -3 -35 -17 -32 -12 2 -19 14 -21 36 -3 27 0 32 17 32 17 0 21
-6 21 -36z m-1836 -10 c9 -23 -3 -212 -16 -256 -6 -21 -15 -35 -19 -32 -10 6
-12 287 -2 297 11 12 31 7 37 -9z m-125 -229 c-2 -113 -7 -205 -11 -205 -4 0
-8 5 -8 10 0 6 -6 9 -12 8 -10 -2 -14 43 -16 195 l-2 197 25 0 26 0 -2 -205z
m-264 -150 c0 -225 -3 -302 -15 -345 l-15 -55 -6 60 c-9 78 -11 598 -3 620 4
9 14 15 23 13 14 -3 16 -34 16 -293z m-125 -364 c0 -632 -2 -663 -37 -616 -10
15 -13 132 -13 620 0 331 3 605 7 608 3 4 15 7 25 7 17 0 18 -25 18 -619z
m-130 -20 c0 -547 -2 -609 -16 -615 -9 -3 -20 -4 -25 0 -10 6 -13 1207 -2
1217 3 4 15 7 25 7 17 0 18 -25 18 -609z m-132 -28 c-3 -590 -3 -598 -23 -598
-20 0 -20 8 -23 585 -1 322 0 591 3 598 2 6 14 12 25 12 20 0 20 -2 18 -597z
m-128 -18 c0 -528 -2 -586 -16 -592 -9 -3 -20 0 -25 8 -10 16 -12 1152 -2
1162 3 4 15 7 25 7 17 0 18 -24 18 -585z m-140 -31 c0 -543 -1 -575 -17 -572
-17 3 -18 40 -21 576 -2 567 -2 572 18 572 20 0 20 -6 20 -576z m-130 -20 c0
-533 -1 -565 -17 -562 -17 3 -18 39 -21 553 -1 303 0 556 3 563 2 6 11 12 20
12 13 0 15 -64 15 -566z m-130 -20 c0 -524 -1 -555 -17 -552 -17 3 -18 38 -21
543 -1 297 0 546 3 553 2 6 11 12 20 12 13 0 15 -63 15 -556z m-340 522 c0
-25 -12 -46 -26 -46 -14 0 -20 41 -7 53 12 12 33 7 33 -7z m210 -547 c0 -509
-1 -540 -17 -537 -17 3 -18 37 -21 528 -1 289 0 531 3 538 2 6 11 12 20 12 13
0 15 -62 15 -541z m-132 -23 c2 -499 1 -527 -15 -524 -17 3 -18 36 -21 518 -1
283 0 521 3 528 3 8 11 12 18 9 9 -3 13 -120 15 -531z m1469 497 c-4 -3 -10
-3 -14 0 -3 4 0 7 7 7 7 0 10 -3 7 -7z m76 -755 c9 -14 12 -39 10 -65 -4 -37
-8 -43 -28 -43 -21 0 -24 5 -27 43 -3 43 9 87 23 87 5 0 15 -10 22 -22z" fill="#FFFF00"/>
<path d="M3103 2313 c-7 -2 -13 -18 -13 -34 0 -22 -5 -29 -20 -29 -18 0 -25
16 -21 43 2 12 -46 8 -55 -5 -5 -7 -7 -53 -4 -103 l5 -90 78 14 77 13 0 99 c0
103 -3 110 -47 92z" fill="#964B00"/>
<path d="M3158 2093 c-24 -4 -27 -9 -30 -46 -3 -39 -5 -42 -35 -45 -32 -3 -33
-2 -33 32 0 38 -9 43 -57 30 -23 -6 -23 -9 -23 -156 0 -124 2 -149 14 -145 8
3 62 9 120 13 l106 7 0 158 c0 175 5 162 -62 152z" fill="#964B00"/>
<path d="M2755 1981 c-23 -5 -30 -12 -30 -31 0 -20 -6 -26 -27 -28 -24 -3 -28
0 -28 23 0 21 -4 26 -16 21 -9 -3 -22 -6 -30 -6 -11 0 -14 -22 -14 -115 l0
-115 43 0 c23 0 66 3 95 6 l52 7 0 123 c0 68 -3 123 -7 123 -5 -1 -21 -4 -38
-8z m-31 -130 c11 -12 14 -21 7 -26 -6 -3 -11 -17 -11 -31 0 -17 -6 -24 -19
-24 -13 0 -20 10 -24 37 -6 34 5 63 23 63 4 0 15 -9 24 -19z" fill="#964B00"/>
<path d="M2826 1973 c-9 -23 -5 -198 4 -213 6 -10 21 -11 62 -4 l53 9 3 102 3
102 -38 6 c-21 3 -48 8 -59 11 -14 2 -24 -2 -28 -13z" fill="#964B00"/>
<path d="M3093 1743 c-7 -2 -13 -18 -13 -34 0 -24 -4 -29 -25 -29 -21 0 -25 5
-25 30 0 31 -7 34 -47 24 -22 -6 -23 -11 -23 -111 l0 -105 43 5 c23 3 66 9 95
12 l52 7 0 104 c0 101 -1 104 -22 103 -13 0 -29 -3 -35 -6z" fill="#964B00"/>
<path d="M2873 1723 c-7 -2 -13 -16 -13 -29 0 -17 -6 -24 -20 -24 -13 0 -20 7
-20 19 0 25 -9 30 -43 24 l-27 -5 0 -109 0 -109 85 0 c69 0 85 3 85 15 0 8 5
15 10 15 6 0 10 42 10 105 l0 105 -27 -1 c-16 0 -34 -3 -40 -6z m-9 -118 c9
-14 12 -25 6 -25 -5 0 -10 -13 -10 -30 0 -23 -4 -30 -20 -30 -16 0 -20 7 -20
30 0 17 -5 30 -10 30 -6 0 -3 11 6 25 9 14 20 25 24 25 4 0 15 -11 24 -25z" fill="#964B00"/>
<path d="M2683 1702 c-18 -3 -23 -10 -23 -33 0 -22 -5 -29 -20 -29 -16 0 -20
7 -20 31 0 24 -3 30 -16 25 -9 -3 -22 -6 -30 -6 -11 0 -14 -21 -14 -106 l0
-106 53 7 c28 3 64 8 80 11 l27 6 0 98 c0 54 -3 100 -7 102 -5 2 -18 2 -30 0z" fill="#964B00"/>
<path d="M2710 2120 c0 -7 3 -10 7 -7 3 4 3 10 0 14 -4 3 -7 0 -7 -7z" fill="#964B00"/>
<path d="M3765 2423 c-33 -8 -66 -16 -72 -19 -9 -2 -13 -30 -13 -92 l0 -89 90
-9 90 -10 0 118 c0 134 8 126 -95 101z" fill="#964B00"/>
<path d="M3880 2306 l0 -134 73 -7 c39 -3 85 -8 100 -11 l28 -6 -3 133 -3 134
-70 12 c-38 6 -82 12 -97 12 l-28 1 0 -134z m128 2 c15 -29 2 -92 -20 -96 -22
-4 -41 73 -25 99 16 25 31 24 45 -3z" fill="#964B00"/>
<path d="M3437 2413 c-4 -3 -7 -51 -7 -105 0 -78 3 -98 14 -98 12 0 14 18 12
100 -3 100 -6 116 -19 103z" fill="#964B00"/>
<path d="M3477 2414 c-4 -4 -7 -50 -7 -102 l0 -95 46 7 c26 3 66 6 90 6 l44 0
0 85 0 85 -29 0 c-23 0 -30 -5 -33 -22 -5 -35 -42 -31 -46 5 -2 15 -9 27 -17
27 -7 0 -20 2 -27 5 -8 3 -17 2 -21 -1z" fill="#964B00"/>
<path d="M4116 2278 c-3 -7 -7 -70 -10 -140 l-5 -128 30 0 29 0 0 140 c0 134
-1 140 -20 140 -11 0 -22 -6 -24 -12z" fill="#964B00"/>
<path d="M4180 2156 l0 -135 110 2 111 2 -3 120 -3 120 -32 3 c-30 3 -33 1
-33 -26 0 -36 -4 -40 -35 -34 -21 3 -25 10 -25 37 0 34 -16 45 -67 45 -23 0
-23 -2 -23 -134z" fill="#964B00"/>
<path d="M3490 2186 l-55 -11 -3 -144 -3 -144 53 6 c29 4 61 7 71 7 15 0 17
14 17 150 0 114 -3 150 -12 149 -7 -1 -38 -6 -68 -13z" fill="#964B00"/>
<path d="M3590 2056 l0 -144 120 1 121 2 -3 130 -3 130 -37 3 c-35 3 -37 2
-40 -30 -2 -28 -7 -34 -30 -36 -26 -3 -28 -1 -28 36 0 43 -13 52 -72 52 l-28
0 0 -144z" fill="#964B00"/>
<path d="M3864 2141 c-2 -2 -4 -55 -4 -117 0 -91 3 -113 15 -118 9 -3 58 -9
110 -12 l95 -7 0 117 c0 64 -1 116 -2 117 -18 5 -210 23 -214 20z m131 -118
c12 -18 14 -28 7 -31 -7 -2 -12 -17 -12 -33 0 -22 -5 -29 -20 -29 -15 0 -20 7
-20 29 0 16 -5 31 -12 33 -8 3 -6 13 8 31 24 33 28 33 49 0z" fill="#964B00"/>
<path d="M4238 1993 l-48 -4 0 -40 c0 -38 -2 -40 -27 -37 -23 2 -29 8 -31 36
-6 56 -22 35 -22 -28 l0 -60 -35 0 -35 0 0 -60 0 -60 69 0 c37 0 96 3 130 6
l61 7 0 123 c0 68 -3 123 -7 122 -5 -1 -29 -3 -55 -5z" fill="#964B00"/>
<path d="M4324 1876 l-2 -124 47 -6 c25 -3 76 -8 114 -11 l67 -7 0 126 0 126
-40 0 c-36 0 -40 -3 -40 -24 0 -13 -7 -26 -15 -30 -26 -9 -45 5 -45 34 0 23
-5 29 -31 34 -17 3 -37 6 -43 6 -7 0 -11 -40 -12 -124z m142 -13 c16 -21 18
-47 4 -38 -6 4 -10 -7 -10 -25 0 -25 -4 -31 -17 -28 -10 2 -20 14 -22 28 -1
14 -8 28 -14 32 -8 5 -5 13 7 27 23 26 35 26 52 4z" fill="#964B00"/>
<path d="M3733 1709 c-1 -130 2 -181 10 -184 7 -2 69 -6 140 -10 l127 -7 -2
179 -3 178 -120 12 c-66 6 -127 12 -135 12 -14 1 -16 -24 -17 -180z m176 22
c23 -32 27 -51 11 -51 -5 0 -10 -20 -10 -45 0 -43 -1 -45 -30 -45 -29 0 -30 2
-30 45 0 25 -4 45 -10 45 -5 0 -10 5 -10 11 0 15 39 69 50 69 5 0 18 -13 29
-29z" fill="#964B00"/>
<path d="M3608 1873 c-12 -3 -18 -17 -20 -46 -3 -41 -4 -42 -40 -45 l-38 -3 0
40 0 41 -40 0 -40 0 0 -164 0 -163 92 -7 c50 -3 112 -6 137 -6 l46 0 -2 172
c-2 95 -3 176 -3 181 0 7 -63 8 -92 0z" fill="#964B00"/>
<path d="M4187 1713 c-4 -3 -7 -21 -7 -40 0 -30 -3 -33 -30 -33 -28 0 -30 3
-30 35 0 34 -1 35 -40 35 l-40 0 0 -100 0 -100 66 0 c57 0 67 -3 71 -20 5 -21
21 -24 61 -14 21 6 22 10 22 125 l0 119 -33 0 c-19 0 -37 -3 -40 -7z" fill="#964B00"/>
<path d="M4290 1605 l0 -118 48 7 c26 4 92 15 147 25 l100 17 0 80 0 79 -52 3
-53 3 0 -45 c0 -46 0 -46 -35 -46 -29 0 -35 4 -36 23 -3 44 -6 68 -11 73 -3 2
-28 7 -57 11 l-51 6 0 -118z" fill="#964B00"/>
<path d="M975 1678 c-3 -7 -6 -67 -7 -133 l-3 -119 -150 -23 c-82 -12 -169
-25 -192 -28 -41 -6 -43 -8 -43 -40 l0 -34 75 -16 c41 -9 75 -22 75 -29 0 -6
-11 -46 -24 -88 -13 -42 -22 -79 -19 -81 2 -3 60 -2 129 1 l124 5 57 -62 c48
-54 60 -62 87 -59 l31 3 -1 235 -1 235 -37 -3 -36 -4 0 126 0 126 -30 0 c-17
0 -33 -6 -35 -12z m65 -410 c-1 -58 -2 -61 -15 -44 -8 11 -15 25 -15 32 0 7
-36 16 -100 24 -56 7 -99 14 -97 16 5 5 171 32 205 33 21 1 22 -3 22 -61z" fill="#228B22" />
<path d="M5425 1583 c-292 -15 -817 -93 -1400 -208 -126 -25 -231 -45 -233
-45 -1 0 -32 -27 -68 -61 -71 -66 -188 -128 -289 -154 -59 -14 -402 -56 -790
-94 -291 -30 -814 -68 -1170 -85 -170 -9 -339 -18 -375 -20 l-65 -4 -58 59
-58 59 -238 -2 -238 -3 13 -55 c26 -102 80 -196 164 -282 l78 -81 79 5 c54 4
109 16 169 38 302 110 280 104 404 104 109 1 120 -1 220 -38 214 -79 255 -88
365 -83 77 3 117 10 175 32 233 86 242 88 335 89 106 1 152 -13 305 -89 125
-63 195 -85 266 -85 68 0 120 17 269 90 160 77 185 85 290 84 78 0 104 -5 195
-38 226 -81 256 -88 365 -83 73 3 119 12 170 30 39 14 111 40 160 58 82 30
100 32 210 33 129 1 124 2 389 -99 38 -14 73 -24 78 -23 5 2 18 27 28 56 32
90 117 253 186 357 74 111 160 217 283 345 106 111 116 147 49 174 -36 14
-167 24 -263 19z m13 -255 c-127 -147 -224 -295 -298 -456 -18 -40 -35 -71
-37 -69 -8 9 71 257 112 350 25 55 42 103 39 106 -3 3 -130 6 -282 5 -274 -1
-567 -21 -855 -59 -266 -36 -96 7 323 80 443 77 731 113 923 114 l138 1 -63
-72z m-818 -233 c0 -10 -197 -66 -351 -99 -359 -77 -660 -107 -1314 -132 -93
-3 -167 -3 -164 0 3 4 80 13 170 21 296 27 1144 135 1439 184 179 29 220 34
220 26z m-3755 -306 c187 -1 165 -14 -42 -25 -101 -5 -136 -4 -148 6 -22 18
-18 33 8 26 12 -3 94 -6 182 -7z" fill="#228B22"/>
<path d="M3438 1494 c-11 -11 -10 -314 1 -314 5 0 35 10 68 22 72 27 156 83
206 137 21 22 42 41 47 41 11 0 13 53 4 88 -6 20 -13 22 -65 22 l-59 0 0 -49
c0 -53 -6 -60 -52 -53 -26 4 -28 7 -28 53 0 44 -2 49 -22 49 -13 0 -39 3 -58
6 -19 3 -38 2 -42 -2z" fill="#964B00"/>
<path d="M3800 1439 c0 -39 3 -50 13 -46 8 3 39 8 70 12 l57 7 0 39 0 39 -70
0 -70 0 0 -51z" fill="#964B00"/>
<path d="M4020 1454 c0 -20 4 -24 19 -19 10 3 38 9 62 13 70 12 61 32 -15 32
-64 0 -66 -1 -66 -26z" fill="#964B00"/>
<path d="M1214 686 c-27 -8 -97 -32 -155 -54 -135 -52 -199 -69 -279 -77 -89
-9 -243 16 -370 59 -57 20 -106 34 -108 32 -4 -5 95 -65 163 -99 75 -37 166
-65 256 -77 129 -18 215 0 469 95 58 22 190 23 245 2 22 -8 93 -47 158 -85
241 -144 333 -151 627 -49 136 47 151 50 245 51 95 0 107 -3 255 -54 l155 -53
130 -1 c129 0 131 0 265 46 244 84 300 85 531 8 189 -63 287 -77 387 -56 75
16 178 63 270 123 154 101 246 112 422 49 58 -21 125 -44 150 -52 163 -52 355
-32 534 57 71 35 158 90 153 96 -3 2 -26 -5 -53 -15 -77 -31 -192 -61 -277
-72 -122 -17 -232 0 -396 62 -170 64 -226 78 -325 78 -70 0 -98 -7 -258 -61
-275 -93 -340 -92 -609 7 -145 54 -233 65 -327 40 -64 -16 -148 -54 -92 -41
14 3 59 8 100 11 103 8 188 -12 342 -80 171 -76 245 -92 363 -79 49 5 91 8 93
7 7 -4 -104 -33 -153 -39 -71 -10 -158 8 -330 68 l-150 52 -125 0 c-124 -1
-127 -1 -265 -50 -133 -46 -146 -49 -245 -49 -101 -1 -110 1 -245 49 l-140 49
-130 0 -130 0 -165 -56 c-91 -31 -191 -59 -222 -63 -62 -7 -168 9 -208 32 -16
9 -18 12 -5 8 11 -3 56 -9 100 -12 101 -7 169 10 330 82 66 29 140 59 165 65
53 15 196 18 260 7 55 -10 44 3 -25 29 -37 14 -75 19 -145 18 -99 0 -100 -1
-334 -84 -168 -60 -284 -52 -521 38 -109 41 -129 45 -225 48 -71 3 -122 -1
-156 -10z" fill="#0096FF"/>
<path d="M2340 384 c-70 -15 -206 -78 -255 -118 l-30 -24 90 24 c122 34 275
42 381 20 44 -9 129 -33 190 -55 216 -77 351 -76 589 4 72 24 158 49 193 56
88 17 246 6 357 -25 50 -13 91 -23 93 -21 7 6 -117 81 -177 106 -156 66 -289
64 -497 -7 -212 -71 -351 -72 -529 -4 -153 59 -274 72 -405 44z" fill="#0096FF"/>
</g>
</svg>
